<svg width="1080" height="1080" viewBox="0 0 1080 1080" fill="none" xmlns="http://www.w3.org/2000/svg">
<rect width="1080" height="1080" rx="244" fill="black" style="fill:black;fill-opacity:1;"/>
<path d="M266.367 367.114C259.61 367.114 253.86 364.742 249.116 359.998C244.372 355.254 242 349.504 242 342.747C242 335.991 244.372 330.169 249.116 325.281C253.86 320.537 259.61 318.165 266.367 318.165C273.123 318.165 278.946 320.537 283.833 325.281C288.577 330.169 290.949 335.991 290.949 342.747C290.949 349.504 288.577 355.254 283.833 359.998C278.946 364.742 273.123 367.114 266.367 367.114ZM315.532 367.114C308.775 367.114 302.953 364.742 298.065 359.998C293.321 355.254 290.949 349.504 290.949 342.747C290.949 335.991 293.321 330.169 298.065 325.281C302.953 320.537 308.775 318.165 315.532 318.165C322.288 318.165 328.039 320.537 332.783 325.281C337.67 330.169 340.114 335.991 340.114 342.747C340.114 349.504 337.67 355.254 332.783 359.998C328.039 364.742 322.288 367.114 315.532 367.114ZM266.367 318.165C259.61 318.165 253.86 315.793 249.116 311.049C244.372 306.161 242 300.339 242 293.582C242 286.826 244.372 281.076 249.116 276.332C253.86 271.444 259.61 269 266.367 269C273.123 269 278.946 271.444 283.833 276.332C288.577 281.076 290.949 286.826 290.949 293.582C290.949 300.339 288.577 306.161 283.833 311.049C278.946 315.793 273.123 318.165 266.367 318.165ZM315.532 318.165C308.775 318.165 302.953 315.793 298.065 311.049C293.321 306.161 290.949 300.339 290.949 293.582C290.949 286.826 293.321 281.076 298.065 276.332C302.953 271.444 308.775 269 315.532 269C322.288 269 328.039 271.444 332.783 276.332C337.67 281.076 340.114 286.826 340.114 293.582C340.114 300.339 337.67 306.161 332.783 311.049C328.039 315.793 322.288 318.165 315.532 318.165Z" fill="white" style="fill:white;fill-opacity:1;"/>
<path d="M578.367 367.114C571.61 367.114 565.86 364.742 561.116 359.998C556.372 355.254 554 349.504 554 342.747C554 335.991 556.372 330.169 561.116 325.281C565.86 320.537 571.61 318.165 578.367 318.165C585.123 318.165 590.946 320.537 595.833 325.281C600.577 330.169 602.949 335.991 602.949 342.747C602.949 349.504 600.577 355.254 595.833 359.998C590.946 364.742 585.123 367.114 578.367 367.114ZM627.532 367.114C620.775 367.114 614.953 364.742 610.065 359.998C605.321 355.254 602.949 349.504 602.949 342.747C602.949 335.991 605.321 330.169 610.065 325.281C614.953 320.537 620.775 318.165 627.532 318.165C634.288 318.165 640.039 320.537 644.783 325.281C649.67 330.169 652.114 335.991 652.114 342.747C652.114 349.504 649.67 355.254 644.783 359.998C640.039 364.742 634.288 367.114 627.532 367.114ZM578.367 318.165C571.61 318.165 565.86 315.793 561.116 311.049C556.372 306.161 554 300.339 554 293.582C554 286.826 556.372 281.076 561.116 276.332C565.86 271.444 571.61 269 578.367 269C585.123 269 590.946 271.444 595.833 276.332C600.577 281.076 602.949 286.826 602.949 293.582C602.949 300.339 600.577 306.161 595.833 311.049C590.946 315.793 585.123 318.165 578.367 318.165ZM627.532 318.165C620.775 318.165 614.953 315.793 610.065 311.049C605.321 306.161 602.949 300.339 602.949 293.582C602.949 286.826 605.321 281.076 610.065 276.332C614.953 271.444 620.775 269 627.532 269C634.288 269 640.039 271.444 644.783 276.332C649.67 281.076 652.114 286.826 652.114 293.582C652.114 300.339 649.67 306.161 644.783 311.049C640.039 315.793 634.288 318.165 627.532 318.165Z" fill="#D71923" style="fill:#D71923;fill:color(display-p3 0.8431 0.0980 0.1373);fill-opacity:1;"/>
<path d="M266.367 245.114C259.61 245.114 253.86 242.742 249.116 237.998C244.372 233.254 242 227.504 242 220.747C242 213.991 244.372 208.169 249.116 203.281C253.86 198.537 259.61 196.165 266.367 196.165C273.123 196.165 278.946 198.537 283.833 203.281C288.577 208.169 290.949 213.991 290.949 220.747C290.949 227.504 288.577 233.254 283.833 237.998C278.946 242.742 273.123 245.114 266.367 245.114ZM315.532 245.114C308.775 245.114 302.953 242.742 298.065 237.998C293.321 233.254 290.949 227.504 290.949 220.747C290.949 213.991 293.321 208.169 298.065 203.281C302.953 198.537 308.775 196.165 315.532 196.165C322.288 196.165 328.039 198.537 332.783 203.281C337.67 208.169 340.114 213.991 340.114 220.747C340.114 227.504 337.67 233.254 332.783 237.998C328.039 242.742 322.288 245.114 315.532 245.114ZM266.367 196.165C259.61 196.165 253.86 193.793 249.116 189.049C244.372 184.161 242 178.339 242 171.582C242 164.826 244.372 159.076 249.116 154.332C253.86 149.444 259.61 147 266.367 147C273.123 147 278.946 149.444 283.833 154.332C288.577 159.076 290.949 164.826 290.949 171.582C290.949 178.339 288.577 184.161 283.833 189.049C278.946 193.793 273.123 196.165 266.367 196.165ZM315.532 196.165C308.775 196.165 302.953 193.793 298.065 189.049C293.321 184.161 290.949 178.339 290.949 171.582C290.949 164.826 293.321 159.076 298.065 154.332C302.953 149.444 308.775 147 315.532 147C322.288 147 328.039 149.444 332.783 154.332C337.67 159.076 340.114 164.826 340.114 171.582C340.114 178.339 337.67 184.161 332.783 189.049C328.039 193.793 322.288 196.165 315.532 196.165Z" fill="white" style="fill:white;fill-opacity:1;"/>
<path d="M578.367 245.114C571.61 245.114 565.86 242.742 561.116 237.998C556.372 233.254 554 227.504 554 220.747C554 213.991 556.372 208.169 561.116 203.281C565.86 198.537 571.61 196.165 578.367 196.165C585.123 196.165 590.946 198.537 595.833 203.281C600.577 208.169 602.949 213.991 602.949 220.747C602.949 227.504 600.577 233.254 595.833 237.998C590.946 242.742 585.123 245.114 578.367 245.114ZM627.532 245.114C620.775 245.114 614.953 242.742 610.065 237.998C605.321 233.254 602.949 227.504 602.949 220.747C602.949 213.991 605.321 208.169 610.065 203.281C614.953 198.537 620.775 196.165 627.532 196.165C634.288 196.165 640.039 198.537 644.783 203.281C649.67 208.169 652.114 213.991 652.114 220.747C652.114 227.504 649.67 233.254 644.783 237.998C640.039 242.742 634.288 245.114 627.532 245.114ZM578.367 196.165C571.61 196.165 565.86 193.793 561.116 189.049C556.372 184.161 554 178.339 554 171.582C554 164.826 556.372 159.076 561.116 154.332C565.86 149.444 571.61 147 578.367 147C585.123 147 590.946 149.444 595.833 154.332C600.577 159.076 602.949 164.826 602.949 171.582C602.949 178.339 600.577 184.161 595.833 189.049C590.946 193.793 585.123 196.165 578.367 196.165ZM627.532 196.165C620.775 196.165 614.953 193.793 610.065 189.049C605.321 184.161 602.949 178.339 602.949 171.582C602.949 164.826 605.321 159.076 610.065 154.332C614.953 149.444 620.775 147 627.532 147C634.288 147 640.039 149.444 644.783 154.332C649.67 159.076 652.114 164.826 652.114 171.582C652.114 178.339 649.67 184.161 644.783 189.049C640.039 193.793 634.288 196.165 627.532 196.165Z" fill="#D71923" style="fill:#D71923;fill:color(display-p3 0.8431 0.0980 0.1373);fill-opacity:1;"/>
<path d="M139.367 245.114C132.61 245.114 126.86 242.742 122.116 237.998C117.372 233.254 115 227.504 115 220.747C115 213.991 117.372 208.169 122.116 203.281C126.86 198.537 132.61 196.165 139.367 196.165C146.123 196.165 151.946 198.537 156.833 203.281C161.577 208.169 163.949 213.991 163.949 220.747C163.949 227.504 161.577 233.254 156.833 237.998C151.946 242.742 146.123 245.114 139.367 245.114ZM188.532 245.114C181.775 245.114 175.953 242.742 171.065 237.998C166.321 233.254 163.949 227.504 163.949 220.747C163.949 213.991 166.321 208.169 171.065 203.281C175.953 198.537 181.775 196.165 188.532 196.165C195.288 196.165 201.039 198.537 205.783 203.281C210.67 208.169 213.114 213.991 213.114 220.747C213.114 227.504 210.67 233.254 205.783 237.998C201.039 242.742 195.288 245.114 188.532 245.114ZM139.367 196.165C132.61 196.165 126.86 193.793 122.116 189.049C117.372 184.161 115 178.339 115 171.582C115 164.826 117.372 159.076 122.116 154.332C126.86 149.444 132.61 147 139.367 147C146.123 147 151.946 149.444 156.833 154.332C161.577 159.076 163.949 164.826 163.949 171.582C163.949 178.339 161.577 184.161 156.833 189.049C151.946 193.793 146.123 196.165 139.367 196.165ZM188.532 196.165C181.775 196.165 175.953 193.793 171.065 189.049C166.321 184.161 163.949 178.339 163.949 171.582C163.949 164.826 166.321 159.076 171.065 154.332C175.953 149.444 181.775 147 188.532 147C195.288 147 201.039 149.444 205.783 154.332C210.67 159.076 213.114 164.826 213.114 171.582C213.114 178.339 210.67 184.161 205.783 189.049C201.039 193.793 195.288 196.165 188.532 196.165Z" fill="white" style="fill:white;fill-opacity:1;"/>
<path d="M451.367 245.114C444.61 245.114 438.86 242.742 434.116 237.998C429.372 233.254 427 227.504 427 220.747C427 213.991 429.372 208.169 434.116 203.281C438.86 198.537 444.61 196.165 451.367 196.165C458.123 196.165 463.946 198.537 468.833 203.281C473.577 208.169 475.949 213.991 475.949 220.747C475.949 227.504 473.577 233.254 468.833 237.998C463.946 242.742 458.123 245.114 451.367 245.114ZM500.532 245.114C493.775 245.114 487.953 242.742 483.065 237.998C478.321 233.254 475.949 227.504 475.949 220.747C475.949 213.991 478.321 208.169 483.065 203.281C487.953 198.537 493.775 196.165 500.532 196.165C507.288 196.165 513.039 198.537 517.783 203.281C522.67 208.169 525.114 213.991 525.114 220.747C525.114 227.504 522.67 233.254 517.783 237.998C513.039 242.742 507.288 245.114 500.532 245.114ZM451.367 196.165C444.61 196.165 438.86 193.793 434.116 189.049C429.372 184.161 427 178.339 427 171.582C427 164.826 429.372 159.076 434.116 154.332C438.86 149.444 444.61 147 451.367 147C458.123 147 463.946 149.444 468.833 154.332C473.577 159.076 475.949 164.826 475.949 171.582C475.949 178.339 473.577 184.161 468.833 189.049C463.946 193.793 458.123 196.165 451.367 196.165ZM500.532 196.165C493.775 196.165 487.953 193.793 483.065 189.049C478.321 184.161 475.949 178.339 475.949 171.582C475.949 164.826 478.321 159.076 483.065 154.332C487.953 149.444 493.775 147 500.532 147C507.288 147 513.039 149.444 517.783 154.332C522.67 159.076 525.114 164.826 525.114 171.582C525.114 178.339 522.67 184.161 517.783 189.049C513.039 193.793 507.288 196.165 500.532 196.165Z" fill="#D71923" style="fill:#D71923;fill:color(display-p3 0.8431 0.0980 0.1373);fill-opacity:1;"/>
<path d="M139.367 367.114C132.61 367.114 126.86 364.742 122.116 359.998C117.372 355.254 115 349.504 115 342.747C115 335.991 117.372 330.169 122.116 325.281C126.86 320.537 132.61 318.165 139.367 318.165C146.123 318.165 151.946 320.537 156.833 325.281C161.577 330.169 163.949 335.991 163.949 342.747C163.949 349.504 161.577 355.254 156.833 359.998C151.946 364.742 146.123 367.114 139.367 367.114ZM188.532 367.114C181.775 367.114 175.953 364.742 171.065 359.998C166.321 355.254 163.949 349.504 163.949 342.747C163.949 335.991 166.321 330.169 171.065 325.281C175.953 320.537 181.775 318.165 188.532 318.165C195.288 318.165 201.039 320.537 205.783 325.281C210.67 330.169 213.114 335.991 213.114 342.747C213.114 349.504 210.67 355.254 205.783 359.998C201.039 364.742 195.288 367.114 188.532 367.114ZM139.367 318.165C132.61 318.165 126.86 315.793 122.116 311.049C117.372 306.161 115 300.339 115 293.582C115 286.826 117.372 281.076 122.116 276.332C126.86 271.444 132.61 269 139.367 269C146.123 269 151.946 271.444 156.833 276.332C161.577 281.076 163.949 286.826 163.949 293.582C163.949 300.339 161.577 306.161 156.833 311.049C151.946 315.793 146.123 318.165 139.367 318.165ZM188.532 318.165C181.775 318.165 175.953 315.793 171.065 311.049C166.321 306.161 163.949 300.339 163.949 293.582C163.949 286.826 166.321 281.076 171.065 276.332C175.953 271.444 181.775 269 188.532 269C195.288 269 201.039 271.444 205.783 276.332C210.67 281.076 213.114 286.826 213.114 293.582C213.114 300.339 210.67 306.161 205.783 311.049C201.039 315.793 195.288 318.165 188.532 318.165Z" fill="white" style="fill:white;fill-opacity:1;"/>
<path d="M451.367 367.114C444.61 367.114 438.86 364.742 434.116 359.998C429.372 355.254 427 349.504 427 342.747C427 335.991 429.372 330.169 434.116 325.281C438.86 320.537 444.61 318.165 451.367 318.165C458.123 318.165 463.946 320.537 468.833 325.281C473.577 330.169 475.949 335.991 475.949 342.747C475.949 349.504 473.577 355.254 468.833 359.998C463.946 364.742 458.123 367.114 451.367 367.114ZM500.532 367.114C493.775 367.114 487.953 364.742 483.065 359.998C478.321 355.254 475.949 349.504 475.949 342.747C475.949 335.991 478.321 330.169 483.065 325.281C487.953 320.537 493.775 318.165 500.532 318.165C507.288 318.165 513.039 320.537 517.783 325.281C522.67 330.169 525.114 335.991 525.114 342.747C525.114 349.504 522.67 355.254 517.783 359.998C513.039 364.742 507.288 367.114 500.532 367.114ZM451.367 318.165C444.61 318.165 438.86 315.793 434.116 311.049C429.372 306.161 427 300.339 427 293.582C427 286.826 429.372 281.076 434.116 276.332C438.86 271.444 444.61 269 451.367 269C458.123 269 463.946 271.444 468.833 276.332C473.577 281.076 475.949 286.826 475.949 293.582C475.949 300.339 473.577 306.161 468.833 311.049C463.946 315.793 458.123 318.165 451.367 318.165ZM500.532 318.165C493.775 318.165 487.953 315.793 483.065 311.049C478.321 306.161 475.949 300.339 475.949 293.582C475.949 286.826 478.321 281.076 483.065 276.332C487.953 271.444 493.775 269 500.532 269C507.288 269 513.039 271.444 517.783 276.332C522.67 281.076 525.114 286.826 525.114 293.582C525.114 300.339 522.67 306.161 517.783 311.049C513.039 315.793 507.288 318.165 500.532 318.165Z" fill="#D71923" style="fill:#D71923;fill:color(display-p3 0.8431 0.0980 0.1373);fill-opacity:1;"/>
<path d="M131.553 891C126.963 891 123.057 889.389 119.834 886.166C116.611 882.943 115 879.037 115 874.447C115 869.857 116.611 865.902 119.834 862.582C123.057 859.359 126.963 857.748 131.553 857.748C136.143 857.748 140.098 859.359 143.418 862.582C146.641 865.902 148.252 869.857 148.252 874.447C148.252 879.037 146.641 882.943 143.418 886.166C140.098 889.389 136.143 891 131.553 891ZM231.602 891C227.012 891 223.057 889.389 219.736 886.166C216.514 882.943 214.902 879.037 214.902 874.447C214.902 869.857 216.514 865.902 219.736 862.582C223.057 859.359 227.012 857.748 231.602 857.748C236.191 857.748 240.098 859.359 243.32 862.582C246.641 865.902 248.301 869.857 248.301 874.447C248.301 879.037 246.641 882.943 243.32 886.166C240.098 889.389 236.191 891 231.602 891ZM331.65 891C327.061 891 323.105 889.389 319.785 886.166C316.562 882.943 314.951 879.037 314.951 874.447C314.951 869.857 316.562 865.902 319.785 862.582C323.105 859.359 327.061 857.748 331.65 857.748C336.24 857.748 340.146 859.359 343.369 862.582C346.592 865.902 348.203 869.857 348.203 874.447C348.203 879.037 346.592 882.943 343.369 886.166C340.146 889.389 336.24 891 331.65 891ZM131.553 857.748C126.963 857.748 123.057 856.137 119.834 852.914C116.611 849.594 115 845.639 115 841.049C115 836.459 116.611 832.553 119.834 829.33C123.057 826.01 126.963 824.35 131.553 824.35C136.143 824.35 140.098 826.01 143.418 829.33C146.641 832.553 148.252 836.459 148.252 841.049C148.252 845.639 146.641 849.594 143.418 852.914C140.098 856.137 136.143 857.748 131.553 857.748ZM231.602 857.748C227.012 857.748 223.057 856.137 219.736 852.914C216.514 849.594 214.902 845.639 214.902 841.049C214.902 836.459 216.514 832.553 219.736 829.33C223.057 826.01 227.012 824.35 231.602 824.35C236.191 824.35 240.098 826.01 243.32 829.33C246.641 832.553 248.301 836.459 248.301 841.049C248.301 845.639 246.641 849.594 243.32 852.914C240.098 856.137 236.191 857.748 231.602 857.748ZM331.65 857.748C327.061 857.748 323.105 856.137 319.785 852.914C316.562 849.594 314.951 845.639 314.951 841.049C314.951 836.459 316.562 832.553 319.785 829.33C323.105 826.01 327.061 824.35 331.65 824.35C336.24 824.35 340.146 826.01 343.369 829.33C346.592 832.553 348.203 836.459 348.203 841.049C348.203 845.639 346.592 849.594 343.369 852.914C340.146 856.137 336.24 857.748 331.65 857.748ZM131.553 824.35C126.963 824.35 123.057 822.738 119.834 819.516C116.611 816.293 115 812.387 115 807.797C115 803.207 116.611 799.252 119.834 795.932C123.057 792.709 126.963 791.098 131.553 791.098C136.143 791.098 140.098 792.709 143.418 795.932C146.641 799.252 148.252 803.207 148.252 807.797C148.252 812.387 146.641 816.293 143.418 819.516C140.098 822.738 136.143 824.35 131.553 824.35ZM231.602 824.35C227.012 824.35 223.057 822.738 219.736 819.516C216.514 816.293 214.902 812.387 214.902 807.797C214.902 803.207 216.514 799.252 219.736 795.932C223.057 792.709 227.012 791.098 231.602 791.098C236.191 791.098 240.098 792.709 243.32 795.932C246.641 799.252 248.301 803.207 248.301 807.797C248.301 812.387 246.641 816.293 243.32 819.516C240.098 822.738 236.191 824.35 231.602 824.35ZM331.65 824.35C327.061 824.35 323.105 822.738 319.785 819.516C316.562 816.293 314.951 812.387 314.951 807.797C314.951 803.207 316.562 799.252 319.785 795.932C323.105 792.709 327.061 791.098 331.65 791.098C336.24 791.098 340.146 792.709 343.369 795.932C346.592 799.252 348.203 803.207 348.203 807.797C348.203 812.387 346.592 816.293 343.369 819.516C340.146 822.738 336.24 824.35 331.65 824.35ZM131.553 791.098C126.963 791.098 123.057 789.486 119.834 786.264C116.611 782.943 115 778.988 115 774.398C115 769.809 116.611 765.902 119.834 762.68C123.057 759.359 126.963 757.699 131.553 757.699C136.143 757.699 140.098 759.359 143.418 762.68C146.641 765.902 148.252 769.809 148.252 774.398C148.252 778.988 146.641 782.943 143.418 786.264C140.098 789.486 136.143 791.098 131.553 791.098ZM164.951 791.098C160.361 791.098 156.406 789.486 153.086 786.264C149.863 782.943 148.252 778.988 148.252 774.398C148.252 769.809 149.863 765.902 153.086 762.68C156.406 759.359 160.361 757.699 164.951 757.699C169.541 757.699 173.447 759.359 176.67 762.68C179.99 765.902 181.65 769.809 181.65 774.398C181.65 778.988 179.99 782.943 176.67 786.264C173.447 789.486 169.541 791.098 164.951 791.098ZM231.602 791.098C227.012 791.098 223.057 789.486 219.736 786.264C216.514 782.943 214.902 778.988 214.902 774.398C214.902 769.809 216.514 765.902 219.736 762.68C223.057 759.359 227.012 757.699 231.602 757.699C236.191 757.699 240.098 759.359 243.32 762.68C246.641 765.902 248.301 769.809 248.301 774.398C248.301 778.988 246.641 782.943 243.32 786.264C240.098 789.486 236.191 791.098 231.602 791.098ZM265 791.098C260.312 791.098 256.357 789.486 253.135 786.264C249.912 782.943 248.301 778.988 248.301 774.398C248.301 769.809 249.912 765.902 253.135 762.68C256.357 759.359 260.312 757.699 265 757.699C269.59 757.699 273.496 759.359 276.719 762.68C279.941 765.902 281.553 769.809 281.553 774.398C281.553 778.988 279.941 782.943 276.719 786.264C273.496 789.486 269.59 791.098 265 791.098ZM331.65 791.098C327.061 791.098 323.105 789.486 319.785 786.264C316.562 782.943 314.951 778.988 314.951 774.398C314.951 769.809 316.562 765.902 319.785 762.68C323.105 759.359 327.061 757.699 331.65 757.699C336.24 757.699 340.146 759.359 343.369 762.68C346.592 765.902 348.203 769.809 348.203 774.398C348.203 778.988 346.592 782.943 343.369 786.264C340.146 789.486 336.24 791.098 331.65 791.098ZM131.553 757.699C126.963 757.699 123.057 756.088 119.834 752.865C116.611 749.643 115 745.688 115 741C115 736.41 116.611 732.504 119.834 729.281C123.057 726.059 126.963 724.447 131.553 724.447C136.143 724.447 140.098 726.059 143.418 729.281C146.641 732.504 148.252 736.41 148.252 741C148.252 745.688 146.641 749.643 143.418 752.865C140.098 756.088 136.143 757.699 131.553 757.699ZM198.203 757.699C193.613 757.699 189.707 756.088 186.484 752.865C183.262 749.643 181.65 745.688 181.65 741C181.65 736.41 183.262 732.504 186.484 729.281C189.707 726.059 193.613 724.447 198.203 724.447C202.793 724.447 206.748 726.059 210.068 729.281C213.291 732.504 214.902 736.41 214.902 741C214.902 745.688 213.291 749.643 210.068 752.865C206.748 756.088 202.793 757.699 198.203 757.699ZM298.252 757.699C293.662 757.699 289.756 756.088 286.533 752.865C283.213 749.643 281.553 745.688 281.553 741C281.553 736.41 283.213 732.504 286.533 729.281C289.756 726.059 293.662 724.447 298.252 724.447C302.842 724.447 306.797 726.059 310.117 729.281C313.34 732.504 314.951 736.41 314.951 741C314.951 745.688 313.34 749.643 310.117 752.865C306.797 756.088 302.842 757.699 298.252 757.699ZM398.154 891C393.564 891 389.658 889.389 386.436 886.166C383.213 882.943 381.602 879.037 381.602 874.447C381.602 869.857 383.213 865.902 386.436 862.582C389.658 859.359 393.564 857.748 398.154 857.748C402.744 857.748 406.699 859.359 410.02 862.582C413.242 865.902 414.854 869.857 414.854 874.447C414.854 879.037 413.242 882.943 410.02 886.166C406.699 889.389 402.744 891 398.154 891ZM498.203 891C493.613 891 489.658 889.389 486.338 886.166C483.115 882.943 481.504 879.037 481.504 874.447C481.504 869.857 483.115 865.902 486.338 862.582C489.658 859.359 493.613 857.748 498.203 857.748C502.793 857.748 506.699 859.359 509.922 862.582C513.242 865.902 514.902 869.857 514.902 874.447C514.902 879.037 513.242 882.943 509.922 886.166C506.699 889.389 502.793 891 498.203 891ZM598.252 891C593.662 891 589.707 889.389 586.387 886.166C583.164 882.943 581.553 879.037 581.553 874.447C581.553 869.857 583.164 865.902 586.387 862.582C589.707 859.359 593.662 857.748 598.252 857.748C602.842 857.748 606.748 859.359 609.971 862.582C613.193 865.902 614.805 869.857 614.805 874.447C614.805 879.037 613.193 882.943 609.971 886.166C606.748 889.389 602.842 891 598.252 891ZM398.154 857.748C393.564 857.748 389.658 856.137 386.436 852.914C383.213 849.594 381.602 845.639 381.602 841.049C381.602 836.459 383.213 832.553 386.436 829.33C389.658 826.01 393.564 824.35 398.154 824.35C402.744 824.35 406.699 826.01 410.02 829.33C413.242 832.553 414.854 836.459 414.854 841.049C414.854 845.639 413.242 849.594 410.02 852.914C406.699 856.137 402.744 857.748 398.154 857.748ZM498.203 857.748C493.613 857.748 489.658 856.137 486.338 852.914C483.115 849.594 481.504 845.639 481.504 841.049C481.504 836.459 483.115 832.553 486.338 829.33C489.658 826.01 493.613 824.35 498.203 824.35C502.793 824.35 506.699 826.01 509.922 829.33C513.242 832.553 514.902 836.459 514.902 841.049C514.902 845.639 513.242 849.594 509.922 852.914C506.699 856.137 502.793 857.748 498.203 857.748ZM598.252 857.748C593.662 857.748 589.707 856.137 586.387 852.914C583.164 849.594 581.553 845.639 581.553 841.049C581.553 836.459 583.164 832.553 586.387 829.33C589.707 826.01 593.662 824.35 598.252 824.35C602.842 824.35 606.748 826.01 609.971 829.33C613.193 832.553 614.805 836.459 614.805 841.049C614.805 845.639 613.193 849.594 609.971 852.914C606.748 856.137 602.842 857.748 598.252 857.748ZM398.154 824.35C393.564 824.35 389.658 822.738 386.436 819.516C383.213 816.293 381.602 812.387 381.602 807.797C381.602 803.207 383.213 799.252 386.436 795.932C389.658 792.709 393.564 791.098 398.154 791.098C402.744 791.098 406.699 792.709 410.02 795.932C413.242 799.252 414.854 803.207 414.854 807.797C414.854 812.387 413.242 816.293 410.02 819.516C406.699 822.738 402.744 824.35 398.154 824.35ZM498.203 824.35C493.613 824.35 489.658 822.738 486.338 819.516C483.115 816.293 481.504 812.387 481.504 807.797C481.504 803.207 483.115 799.252 486.338 795.932C489.658 792.709 493.613 791.098 498.203 791.098C502.793 791.098 506.699 792.709 509.922 795.932C513.242 799.252 514.902 803.207 514.902 807.797C514.902 812.387 513.242 816.293 509.922 819.516C506.699 822.738 502.793 824.35 498.203 824.35ZM598.252 824.35C593.662 824.35 589.707 822.738 586.387 819.516C583.164 816.293 581.553 812.387 581.553 807.797C581.553 803.207 583.164 799.252 586.387 795.932C589.707 792.709 593.662 791.098 598.252 791.098C602.842 791.098 606.748 792.709 609.971 795.932C613.193 799.252 614.805 803.207 614.805 807.797C614.805 812.387 613.193 816.293 609.971 819.516C606.748 822.738 602.842 824.35 598.252 824.35ZM398.154 791.098C393.564 791.098 389.658 789.486 386.436 786.264C383.213 782.943 381.602 778.988 381.602 774.398C381.602 769.809 383.213 765.902 386.436 762.68C389.658 759.359 393.564 757.699 398.154 757.699C402.744 757.699 406.699 759.359 410.02 762.68C413.242 765.902 414.854 769.809 414.854 774.398C414.854 778.988 413.242 782.943 410.02 786.264C406.699 789.486 402.744 791.098 398.154 791.098ZM431.553 791.098C426.963 791.098 423.008 789.486 419.688 786.264C416.465 782.943 414.854 778.988 414.854 774.398C414.854 769.809 416.465 765.902 419.688 762.68C423.008 759.359 426.963 757.699 431.553 757.699C436.143 757.699 440.049 759.359 443.271 762.68C446.592 765.902 448.252 769.809 448.252 774.398C448.252 778.988 446.592 782.943 443.271 786.264C440.049 789.486 436.143 791.098 431.553 791.098ZM498.203 791.098C493.613 791.098 489.658 789.486 486.338 786.264C483.115 782.943 481.504 778.988 481.504 774.398C481.504 769.809 483.115 765.902 486.338 762.68C489.658 759.359 493.613 757.699 498.203 757.699C502.793 757.699 506.699 759.359 509.922 762.68C513.242 765.902 514.902 769.809 514.902 774.398C514.902 778.988 513.242 782.943 509.922 786.264C506.699 789.486 502.793 791.098 498.203 791.098ZM531.602 791.098C526.914 791.098 522.959 789.486 519.736 786.264C516.514 782.943 514.902 778.988 514.902 774.398C514.902 769.809 516.514 765.902 519.736 762.68C522.959 759.359 526.914 757.699 531.602 757.699C536.191 757.699 540.098 759.359 543.32 762.68C546.543 765.902 548.154 769.809 548.154 774.398C548.154 778.988 546.543 782.943 543.32 786.264C540.098 789.486 536.191 791.098 531.602 791.098ZM598.252 791.098C593.662 791.098 589.707 789.486 586.387 786.264C583.164 782.943 581.553 778.988 581.553 774.398C581.553 769.809 583.164 765.902 586.387 762.68C589.707 759.359 593.662 757.699 598.252 757.699C602.842 757.699 606.748 759.359 609.971 762.68C613.193 765.902 614.805 769.809 614.805 774.398C614.805 778.988 613.193 782.943 609.971 786.264C606.748 789.486 602.842 791.098 598.252 791.098ZM398.154 757.699C393.564 757.699 389.658 756.088 386.436 752.865C383.213 749.643 381.602 745.688 381.602 741C381.602 736.41 383.213 732.504 386.436 729.281C389.658 726.059 393.564 724.447 398.154 724.447C402.744 724.447 406.699 726.059 410.02 729.281C413.242 732.504 414.854 736.41 414.854 741C414.854 745.688 413.242 749.643 410.02 752.865C406.699 756.088 402.744 757.699 398.154 757.699ZM464.805 757.699C460.215 757.699 456.309 756.088 453.086 752.865C449.863 749.643 448.252 745.688 448.252 741C448.252 736.41 449.863 732.504 453.086 729.281C456.309 726.059 460.215 724.447 464.805 724.447C469.395 724.447 473.35 726.059 476.67 729.281C479.893 732.504 481.504 736.41 481.504 741C481.504 745.688 479.893 749.643 476.67 752.865C473.35 756.088 469.395 757.699 464.805 757.699ZM564.854 757.699C560.264 757.699 556.357 756.088 553.135 752.865C549.814 749.643 548.154 745.688 548.154 741C548.154 736.41 549.814 732.504 553.135 729.281C556.357 726.059 560.264 724.447 564.854 724.447C569.443 724.447 573.398 726.059 576.719 729.281C579.941 732.504 581.553 736.41 581.553 741C581.553 745.688 579.941 749.643 576.719 752.865C573.398 756.088 569.443 757.699 564.854 757.699ZM664.756 891C660.166 891 656.26 889.389 653.037 886.166C649.814 882.943 648.203 879.037 648.203 874.447C648.203 869.857 649.814 865.902 653.037 862.582C656.26 859.359 660.166 857.748 664.756 857.748C669.346 857.748 673.301 859.359 676.621 862.582C679.844 865.902 681.455 869.857 681.455 874.447C681.455 879.037 679.844 882.943 676.621 886.166C673.301 889.389 669.346 891 664.756 891ZM798.203 891C793.516 891 789.561 889.389 786.338 886.166C783.115 882.943 781.504 879.037 781.504 874.447C781.504 869.857 783.115 865.902 786.338 862.582C789.561 859.359 793.516 857.748 798.203 857.748C802.793 857.748 806.699 859.359 809.922 862.582C813.145 865.902 814.756 869.857 814.756 874.447C814.756 879.037 813.145 882.943 809.922 886.166C806.699 889.389 802.793 891 798.203 891ZM664.756 857.748C660.166 857.748 656.26 856.137 653.037 852.914C649.814 849.594 648.203 845.639 648.203 841.049C648.203 836.459 649.814 832.553 653.037 829.33C656.26 826.01 660.166 824.35 664.756 824.35C669.346 824.35 673.301 826.01 676.621 829.33C679.844 832.553 681.455 836.459 681.455 841.049C681.455 845.639 679.844 849.594 676.621 852.914C673.301 856.137 669.346 857.748 664.756 857.748ZM798.203 857.748C793.516 857.748 789.561 856.137 786.338 852.914C783.115 849.594 781.504 845.639 781.504 841.049C781.504 836.459 783.115 832.553 786.338 829.33C789.561 826.01 793.516 824.35 798.203 824.35C802.793 824.35 806.699 826.01 809.922 829.33C813.145 832.553 814.756 836.459 814.756 841.049C814.756 845.639 813.145 849.594 809.922 852.914C806.699 856.137 802.793 857.748 798.203 857.748ZM664.756 824.35C660.166 824.35 656.26 822.738 653.037 819.516C649.814 816.293 648.203 812.387 648.203 807.797C648.203 803.207 649.814 799.252 653.037 795.932C656.26 792.709 660.166 791.098 664.756 791.098C669.346 791.098 673.301 792.709 676.621 795.932C679.844 799.252 681.455 803.207 681.455 807.797C681.455 812.387 679.844 816.293 676.621 819.516C673.301 822.738 669.346 824.35 664.756 824.35ZM798.203 824.35C793.516 824.35 789.561 822.738 786.338 819.516C783.115 816.293 781.504 812.387 781.504 807.797C781.504 803.207 783.115 799.252 786.338 795.932C789.561 792.709 793.516 791.098 798.203 791.098C802.793 791.098 806.699 792.709 809.922 795.932C813.145 799.252 814.756 803.207 814.756 807.797C814.756 812.387 813.145 816.293 809.922 819.516C806.699 822.738 802.793 824.35 798.203 824.35ZM664.756 791.098C660.166 791.098 656.26 789.486 653.037 786.264C649.814 782.943 648.203 778.988 648.203 774.398C648.203 769.809 649.814 765.902 653.037 762.68C656.26 759.359 660.166 757.699 664.756 757.699C669.346 757.699 673.301 759.359 676.621 762.68C679.844 765.902 681.455 769.809 681.455 774.398C681.455 778.988 679.844 782.943 676.621 786.264C673.301 789.486 669.346 791.098 664.756 791.098ZM698.154 791.098C693.564 791.098 689.609 789.486 686.289 786.264C683.066 782.943 681.455 778.988 681.455 774.398C681.455 769.809 683.066 765.902 686.289 762.68C689.609 759.359 693.564 757.699 698.154 757.699C702.744 757.699 706.65 759.359 709.873 762.68C713.193 765.902 714.854 769.809 714.854 774.398C714.854 778.988 713.193 782.943 709.873 786.264C706.65 789.486 702.744 791.098 698.154 791.098ZM731.406 791.098C726.816 791.098 722.91 789.486 719.688 786.264C716.465 782.943 714.854 778.988 714.854 774.398C714.854 769.809 716.465 765.902 719.688 762.68C722.91 759.359 726.816 757.699 731.406 757.699C735.996 757.699 739.951 759.359 743.271 762.68C746.494 765.902 748.105 769.809 748.105 774.398C748.105 778.988 746.494 782.943 743.271 786.264C739.951 789.486 735.996 791.098 731.406 791.098ZM764.805 791.098C760.215 791.098 756.26 789.486 752.939 786.264C749.717 782.943 748.105 778.988 748.105 774.398C748.105 769.809 749.717 765.902 752.939 762.68C756.26 759.359 760.215 757.699 764.805 757.699C769.395 757.699 773.301 759.359 776.523 762.68C779.844 765.902 781.504 769.809 781.504 774.398C781.504 778.988 779.844 782.943 776.523 786.264C773.301 789.486 769.395 791.098 764.805 791.098ZM798.203 791.098C793.516 791.098 789.561 789.486 786.338 786.264C783.115 782.943 781.504 778.988 781.504 774.398C781.504 769.809 783.115 765.902 786.338 762.68C789.561 759.359 793.516 757.699 798.203 757.699C802.793 757.699 806.699 759.359 809.922 762.68C813.145 765.902 814.756 769.809 814.756 774.398C814.756 778.988 813.145 782.943 809.922 786.264C806.699 789.486 802.793 791.098 798.203 791.098ZM664.756 757.699C660.166 757.699 656.26 756.088 653.037 752.865C649.814 749.643 648.203 745.688 648.203 741C648.203 736.41 649.814 732.504 653.037 729.281C656.26 726.059 660.166 724.447 664.756 724.447C669.346 724.447 673.301 726.059 676.621 729.281C679.844 732.504 681.455 736.41 681.455 741C681.455 745.688 679.844 749.643 676.621 752.865C673.301 756.088 669.346 757.699 664.756 757.699ZM798.203 757.699C793.516 757.699 789.561 756.088 786.338 752.865C783.115 749.643 781.504 745.688 781.504 741C781.504 736.41 783.115 732.504 786.338 729.281C789.561 726.059 793.516 724.447 798.203 724.447C802.793 724.447 806.699 726.059 809.922 729.281C813.145 732.504 814.756 736.41 814.756 741C814.756 745.688 813.145 749.643 809.922 752.865C806.699 756.088 802.793 757.699 798.203 757.699ZM664.756 724.447C660.166 724.447 656.26 722.787 653.037 719.467C649.814 716.244 648.203 712.338 648.203 707.748C648.203 703.158 649.814 699.203 653.037 695.883C656.26 692.66 660.166 691.049 664.756 691.049C669.346 691.049 673.301 692.66 676.621 695.883C679.844 699.203 681.455 703.158 681.455 707.748C681.455 712.338 679.844 716.244 676.621 719.467C673.301 722.787 669.346 724.447 664.756 724.447ZM798.203 724.447C793.516 724.447 789.561 722.787 786.338 719.467C783.115 716.244 781.504 712.338 781.504 707.748C781.504 703.158 783.115 699.203 786.338 695.883C789.561 692.66 793.516 691.049 798.203 691.049C802.793 691.049 806.699 692.66 809.922 695.883C813.145 699.203 814.756 703.158 814.756 707.748C814.756 712.338 813.145 716.244 809.922 719.467C806.699 722.787 802.793 724.447 798.203 724.447ZM664.756 691.049C660.166 691.049 656.26 689.438 653.037 686.215C649.814 682.895 648.203 678.939 648.203 674.35C648.203 669.76 649.814 665.854 653.037 662.631C656.26 659.408 660.166 657.797 664.756 657.797C669.346 657.797 673.301 659.408 676.621 662.631C679.844 665.854 681.455 669.76 681.455 674.35C681.455 678.939 679.844 682.895 676.621 686.215C673.301 689.438 669.346 691.049 664.756 691.049ZM798.203 691.049C793.516 691.049 789.561 689.438 786.338 686.215C783.115 682.895 781.504 678.939 781.504 674.35C781.504 669.76 783.115 665.854 786.338 662.631C789.561 659.408 793.516 657.797 798.203 657.797C802.793 657.797 806.699 659.408 809.922 662.631C813.145 665.854 814.756 669.76 814.756 674.35C814.756 678.939 813.145 682.895 809.922 686.215C806.699 689.438 802.793 691.049 798.203 691.049ZM864.854 957.65C860.264 957.65 856.357 955.99 853.135 952.67C849.912 949.447 848.301 945.541 848.301 940.951C848.301 936.361 849.912 932.406 853.135 929.086C856.357 925.863 860.264 924.252 864.854 924.252C869.443 924.252 873.398 925.863 876.719 929.086C879.941 932.406 881.553 936.361 881.553 940.951C881.553 945.541 879.941 949.447 876.719 952.67C873.398 955.99 869.443 957.65 864.854 957.65ZM898.252 957.65C893.662 957.65 889.707 955.99 886.387 952.67C883.164 949.447 881.553 945.541 881.553 940.951C881.553 936.361 883.164 932.406 886.387 929.086C889.707 925.863 893.662 924.252 898.252 924.252C902.842 924.252 906.748 925.863 909.971 929.086C913.291 932.406 914.951 936.361 914.951 940.951C914.951 945.541 913.291 949.447 909.971 952.67C906.748 955.99 902.842 957.65 898.252 957.65ZM931.504 957.65C926.914 957.65 923.008 955.99 919.785 952.67C916.562 949.447 914.951 945.541 914.951 940.951C914.951 936.361 916.562 932.406 919.785 929.086C923.008 925.863 926.914 924.252 931.504 924.252C936.094 924.252 940.049 925.863 943.369 929.086C946.592 932.406 948.203 936.361 948.203 940.951C948.203 945.541 946.592 949.447 943.369 952.67C940.049 955.99 936.094 957.65 931.504 957.65ZM964.902 924.252C960.312 924.252 956.357 922.641 953.037 919.418C949.814 916.098 948.203 912.143 948.203 907.553C948.203 902.963 949.814 899.057 953.037 895.834C956.357 892.611 960.312 891 964.902 891C969.492 891 973.398 892.611 976.621 895.834C979.941 899.057 981.602 902.963 981.602 907.553C981.602 912.143 979.941 916.098 976.621 919.418C973.398 922.641 969.492 924.252 964.902 924.252ZM898.252 891C893.662 891 889.707 889.389 886.387 886.166C883.164 882.943 881.553 879.037 881.553 874.447C881.553 869.857 883.164 865.902 886.387 862.582C889.707 859.359 893.662 857.748 898.252 857.748C902.842 857.748 906.748 859.359 909.971 862.582C913.291 865.902 914.951 869.857 914.951 874.447C914.951 879.037 913.291 882.943 909.971 886.166C906.748 889.389 902.842 891 898.252 891ZM931.504 891C926.914 891 923.008 889.389 919.785 886.166C916.562 882.943 914.951 879.037 914.951 874.447C914.951 869.857 916.562 865.902 919.785 862.582C923.008 859.359 926.914 857.748 931.504 857.748C936.094 857.748 940.049 859.359 943.369 862.582C946.592 865.902 948.203 869.857 948.203 874.447C948.203 879.037 946.592 882.943 943.369 886.166C940.049 889.389 936.094 891 931.504 891ZM964.902 891C960.312 891 956.357 889.389 953.037 886.166C949.814 882.943 948.203 879.037 948.203 874.447C948.203 869.857 949.814 865.902 953.037 862.582C956.357 859.359 960.312 857.748 964.902 857.748C969.492 857.748 973.398 859.359 976.621 862.582C979.941 865.902 981.602 869.857 981.602 874.447C981.602 879.037 979.941 882.943 976.621 886.166C973.398 889.389 969.492 891 964.902 891ZM864.854 857.748C860.264 857.748 856.357 856.137 853.135 852.914C849.912 849.594 848.301 845.639 848.301 841.049C848.301 836.459 849.912 832.553 853.135 829.33C856.357 826.01 860.264 824.35 864.854 824.35C869.443 824.35 873.398 826.01 876.719 829.33C879.941 832.553 881.553 836.459 881.553 841.049C881.553 845.639 879.941 849.594 876.719 852.914C873.398 856.137 869.443 857.748 864.854 857.748ZM964.902 857.748C960.312 857.748 956.357 856.137 953.037 852.914C949.814 849.594 948.203 845.639 948.203 841.049C948.203 836.459 949.814 832.553 953.037 829.33C956.357 826.01 960.312 824.35 964.902 824.35C969.492 824.35 973.398 826.01 976.621 829.33C979.941 832.553 981.602 836.459 981.602 841.049C981.602 845.639 979.941 849.594 976.621 852.914C973.398 856.137 969.492 857.748 964.902 857.748ZM864.854 824.35C860.264 824.35 856.357 822.738 853.135 819.516C849.912 816.293 848.301 812.387 848.301 807.797C848.301 803.207 849.912 799.252 853.135 795.932C856.357 792.709 860.264 791.098 864.854 791.098C869.443 791.098 873.398 792.709 876.719 795.932C879.941 799.252 881.553 803.207 881.553 807.797C881.553 812.387 879.941 816.293 876.719 819.516C873.398 822.738 869.443 824.35 864.854 824.35ZM964.902 824.35C960.312 824.35 956.357 822.738 953.037 819.516C949.814 816.293 948.203 812.387 948.203 807.797C948.203 803.207 949.814 799.252 953.037 795.932C956.357 792.709 960.312 791.098 964.902 791.098C969.492 791.098 973.398 792.709 976.621 795.932C979.941 799.252 981.602 803.207 981.602 807.797C981.602 812.387 979.941 816.293 976.621 819.516C973.398 822.738 969.492 824.35 964.902 824.35ZM864.854 791.098C860.264 791.098 856.357 789.486 853.135 786.264C849.912 782.943 848.301 778.988 848.301 774.398C848.301 769.809 849.912 765.902 853.135 762.68C856.357 759.359 860.264 757.699 864.854 757.699C869.443 757.699 873.398 759.359 876.719 762.68C879.941 765.902 881.553 769.809 881.553 774.398C881.553 778.988 879.941 782.943 876.719 786.264C873.398 789.486 869.443 791.098 864.854 791.098ZM964.902 791.098C960.312 791.098 956.357 789.486 953.037 786.264C949.814 782.943 948.203 778.988 948.203 774.398C948.203 769.809 949.814 765.902 953.037 762.68C956.357 759.359 960.312 757.699 964.902 757.699C969.492 757.699 973.398 759.359 976.621 762.68C979.941 765.902 981.602 769.809 981.602 774.398C981.602 778.988 979.941 782.943 976.621 786.264C973.398 789.486 969.492 791.098 964.902 791.098ZM898.252 757.699C893.662 757.699 889.707 756.088 886.387 752.865C883.164 749.643 881.553 745.688 881.553 741C881.553 736.41 883.164 732.504 886.387 729.281C889.707 726.059 893.662 724.447 898.252 724.447C902.842 724.447 906.748 726.059 909.971 729.281C913.291 732.504 914.951 736.41 914.951 741C914.951 745.688 913.291 749.643 909.971 752.865C906.748 756.088 902.842 757.699 898.252 757.699ZM931.504 757.699C926.914 757.699 923.008 756.088 919.785 752.865C916.562 749.643 914.951 745.688 914.951 741C914.951 736.41 916.562 732.504 919.785 729.281C923.008 726.059 926.914 724.447 931.504 724.447C936.094 724.447 940.049 726.059 943.369 729.281C946.592 732.504 948.203 736.41 948.203 741C948.203 745.688 946.592 749.643 943.369 752.865C940.049 756.088 936.094 757.699 931.504 757.699ZM964.902 757.699C960.312 757.699 956.357 756.088 953.037 752.865C949.814 749.643 948.203 745.688 948.203 741C948.203 736.41 949.814 732.504 953.037 729.281C956.357 726.059 960.312 724.447 964.902 724.447C969.492 724.447 973.398 726.059 976.621 729.281C979.941 732.504 981.602 736.41 981.602 741C981.602 745.688 979.941 749.643 976.621 752.865C973.398 756.088 969.492 757.699 964.902 757.699Z" fill="white" style="fill:white;fill-opacity:1;"/>
</svg>
